<mxfile host="app.diagrams.net" modified="2023-05-24T00:56:14.295Z" agent="Mozilla/5.0 (Macintosh; Intel Mac OS X 10_15_7) AppleWebKit/537.36 (KHTML, like Gecko) Chrome/113.0.0.0 Safari/537.36" etag="RvfPLmmqcjsL3ZZ3JQEG" version="21.1.7" type="device" pages="3">
  <diagram id="ga6HKsMXvUaOabjMQ1Gn" name="compare">
    <mxGraphModel dx="2177" dy="1393" grid="0" gridSize="10" guides="1" tooltips="1" connect="1" arrows="1" fold="1" page="0" pageScale="1" pageWidth="827" pageHeight="1169" math="0" shadow="0">
      <root>
        <mxCell id="0" />
        <mxCell id="1" parent="0" />
        <mxCell id="QgUYkgtsDDtmfUdsTqQF-49" value="dev Server" style="rounded=1;arcSize=10;dashed=1;strokeColor=#67AB9F;fillColor=none;gradientColor=none;dashPattern=8 4;strokeWidth=2;labelPosition=center;verticalLabelPosition=bottom;align=center;verticalAlign=top;movable=1;resizable=1;rotatable=1;deletable=1;editable=1;locked=0;connectable=1;" parent="1" vertex="1">
          <mxGeometry x="2429" y="441" width="262" height="119" as="geometry" />
        </mxCell>
        <mxCell id="BPoPwKLiZ1-ek6KLwnQ--23" value="" style="rounded=1;arcSize=10;dashed=1;fillColor=none;gradientColor=none;dashPattern=1 1;strokeWidth=2;" parent="1" vertex="1">
          <mxGeometry x="757.3" y="171" width="534.7" height="202" as="geometry" />
        </mxCell>
        <mxCell id="QgUYkgtsDDtmfUdsTqQF-5" value="Server" style="rounded=1;arcSize=10;dashed=1;strokeColor=#67AB9F;fillColor=none;gradientColor=none;dashPattern=8 4;strokeWidth=2;labelPosition=center;verticalLabelPosition=bottom;align=center;verticalAlign=top;" parent="1" vertex="1">
          <mxGeometry x="297" y="622" width="199.5" height="199.5" as="geometry" />
        </mxCell>
        <mxCell id="QgUYkgtsDDtmfUdsTqQF-6" value="Server" style="rounded=1;arcSize=13;dashed=1;strokeColor=#67AB9F;fillColor=none;gradientColor=none;dashPattern=8 4;strokeWidth=2;labelPosition=center;verticalLabelPosition=bottom;align=center;verticalAlign=top;" parent="1" vertex="1">
          <mxGeometry x="302" y="243" width="199.5" height="199.5" as="geometry" />
        </mxCell>
        <mxCell id="QgUYkgtsDDtmfUdsTqQF-7" value="Server" style="rounded=1;arcSize=10;dashed=1;strokeColor=#67AB9F;fillColor=none;gradientColor=none;dashPattern=8 4;strokeWidth=2;labelPosition=center;verticalLabelPosition=bottom;align=center;verticalAlign=top;" parent="1" vertex="1">
          <mxGeometry x="886" y="531" width="448" height="212" as="geometry" />
        </mxCell>
        <mxCell id="BPoPwKLiZ1-ek6KLwnQ--3" style="rounded=0;orthogonalLoop=1;jettySize=auto;html=1;entryX=0.25;entryY=1;entryDx=0;entryDy=0;fontColor=#FF0000;strokeColor=#FF0000;" parent="1" source="rdyC-f-NQrERVaJfB_fL-1" target="QgUYkgtsDDtmfUdsTqQF-2" edge="1">
          <mxGeometry relative="1" as="geometry">
            <mxPoint x="190" y="215" as="targetPoint" />
          </mxGeometry>
        </mxCell>
        <mxCell id="BPoPwKLiZ1-ek6KLwnQ--4" value="git push" style="edgeLabel;html=1;align=center;verticalAlign=middle;resizable=0;points=[];fontColor=#FF0000;" parent="BPoPwKLiZ1-ek6KLwnQ--3" vertex="1" connectable="0">
          <mxGeometry x="-0.086" y="3" relative="1" as="geometry">
            <mxPoint x="-24" y="-5" as="offset" />
          </mxGeometry>
        </mxCell>
        <mxCell id="BPoPwKLiZ1-ek6KLwnQ--31" style="rounded=0;orthogonalLoop=1;jettySize=auto;html=1;entryX=0;entryY=0.5;entryDx=0;entryDy=0;dashed=1;fontColor=#FF0000;strokeColor=#FF0000;" parent="1" source="rdyC-f-NQrERVaJfB_fL-1" target="QgUYkgtsDDtmfUdsTqQF-6" edge="1">
          <mxGeometry relative="1" as="geometry">
            <mxPoint x="322.4200000000001" y="354.87" as="targetPoint" />
          </mxGeometry>
        </mxCell>
        <mxCell id="BPoPwKLiZ1-ek6KLwnQ--32" value="ssh &amp;amp;&amp;amp; restart" style="edgeLabel;html=1;align=center;verticalAlign=middle;resizable=0;points=[];fontColor=#FF0000;" parent="BPoPwKLiZ1-ek6KLwnQ--31" vertex="1" connectable="0">
          <mxGeometry x="-0.2185" y="-3" relative="1" as="geometry">
            <mxPoint x="8" y="11" as="offset" />
          </mxGeometry>
        </mxCell>
        <mxCell id="rdyC-f-NQrERVaJfB_fL-1" value="Client" style="sketch=0;outlineConnect=0;fontColor=#232F3E;gradientColor=none;strokeColor=#232F3E;fillColor=#ffffff;dashed=0;verticalLabelPosition=bottom;verticalAlign=top;align=center;html=1;fontSize=12;fontStyle=0;aspect=fixed;shape=mxgraph.aws4.resourceIcon;resIcon=mxgraph.aws4.client;" parent="1" vertex="1">
          <mxGeometry x="61" y="327" width="60" height="60" as="geometry" />
        </mxCell>
        <mxCell id="BPoPwKLiZ1-ek6KLwnQ--5" style="rounded=0;orthogonalLoop=1;jettySize=auto;html=1;exitX=0.75;exitY=1;exitDx=0;exitDy=0;fontColor=#FF0000;strokeColor=#FF0000;" parent="1" source="QgUYkgtsDDtmfUdsTqQF-2" target="BPoPwKLiZ1-ek6KLwnQ--38" edge="1">
          <mxGeometry relative="1" as="geometry">
            <mxPoint x="379.4200000000001" y="323.2506195040014" as="targetPoint" />
            <mxPoint x="228" y="216.33566433566432" as="sourcePoint" />
          </mxGeometry>
        </mxCell>
        <mxCell id="BPoPwKLiZ1-ek6KLwnQ--6" value="git pull" style="edgeLabel;html=1;align=center;verticalAlign=middle;resizable=0;points=[];fontColor=#FF0000;" parent="BPoPwKLiZ1-ek6KLwnQ--5" vertex="1" connectable="0">
          <mxGeometry x="-0.3132" y="2" relative="1" as="geometry">
            <mxPoint x="24" y="2" as="offset" />
          </mxGeometry>
        </mxCell>
        <mxCell id="BPoPwKLiZ1-ek6KLwnQ--7" style="rounded=0;orthogonalLoop=1;jettySize=auto;html=1;entryX=0.5;entryY=1;entryDx=0;entryDy=0;fontColor=#FF0000;strokeColor=#FF0000;" parent="1" source="BPoPwKLiZ1-ek6KLwnQ--9" target="QgUYkgtsDDtmfUdsTqQF-3" edge="1">
          <mxGeometry relative="1" as="geometry">
            <mxPoint x="181.20000000000005" y="577" as="targetPoint" />
          </mxGeometry>
        </mxCell>
        <mxCell id="BPoPwKLiZ1-ek6KLwnQ--8" value="git push" style="edgeLabel;html=1;align=center;verticalAlign=middle;resizable=0;points=[];fontColor=#FF0000;" parent="BPoPwKLiZ1-ek6KLwnQ--7" vertex="1" connectable="0">
          <mxGeometry x="-0.086" y="3" relative="1" as="geometry">
            <mxPoint x="-24" y="-5" as="offset" />
          </mxGeometry>
        </mxCell>
        <mxCell id="BPoPwKLiZ1-ek6KLwnQ--14" style="rounded=0;orthogonalLoop=1;jettySize=auto;html=1;fontColor=#FF0000;strokeColor=#FF0000;" parent="1" source="BPoPwKLiZ1-ek6KLwnQ--9" target="BPoPwKLiZ1-ek6KLwnQ--37" edge="1">
          <mxGeometry relative="1" as="geometry">
            <mxPoint x="388" y="698.7239300783606" as="targetPoint" />
          </mxGeometry>
        </mxCell>
        <mxCell id="BPoPwKLiZ1-ek6KLwnQ--15" value="upload &amp;amp;&amp;amp; deploy" style="edgeLabel;html=1;align=center;verticalAlign=middle;resizable=0;points=[];fontColor=#FF0000;" parent="BPoPwKLiZ1-ek6KLwnQ--14" vertex="1" connectable="0">
          <mxGeometry x="-0.2116" relative="1" as="geometry">
            <mxPoint x="16" y="11" as="offset" />
          </mxGeometry>
        </mxCell>
        <mxCell id="BPoPwKLiZ1-ek6KLwnQ--9" value="Client" style="sketch=0;outlineConnect=0;fontColor=#232F3E;gradientColor=none;strokeColor=#232F3E;fillColor=#ffffff;dashed=0;verticalLabelPosition=bottom;verticalAlign=top;align=center;html=1;fontSize=12;fontStyle=0;aspect=fixed;shape=mxgraph.aws4.resourceIcon;resIcon=mxgraph.aws4.client;" parent="1" vertex="1">
          <mxGeometry x="52.19999999999999" y="689" width="60" height="60" as="geometry" />
        </mxCell>
        <mxCell id="BPoPwKLiZ1-ek6KLwnQ--16" style="rounded=0;orthogonalLoop=1;jettySize=auto;html=1;entryX=0.25;entryY=1;entryDx=0;entryDy=0;fontColor=#FF0000;strokeColor=#FF0000;" parent="1" source="BPoPwKLiZ1-ek6KLwnQ--20" target="QgUYkgtsDDtmfUdsTqQF-4" edge="1">
          <mxGeometry relative="1" as="geometry">
            <mxPoint x="798" y="297" as="targetPoint" />
          </mxGeometry>
        </mxCell>
        <mxCell id="BPoPwKLiZ1-ek6KLwnQ--17" value="git push" style="edgeLabel;html=1;align=center;verticalAlign=middle;resizable=0;points=[];fontColor=#FF0000;" parent="BPoPwKLiZ1-ek6KLwnQ--16" vertex="1" connectable="0">
          <mxGeometry x="-0.086" y="3" relative="1" as="geometry">
            <mxPoint x="-24" y="-5" as="offset" />
          </mxGeometry>
        </mxCell>
        <mxCell id="BPoPwKLiZ1-ek6KLwnQ--20" value="Client" style="sketch=0;outlineConnect=0;fontColor=#232F3E;gradientColor=none;strokeColor=#232F3E;fillColor=#ffffff;dashed=0;verticalLabelPosition=bottom;verticalAlign=top;align=center;html=1;fontSize=12;fontStyle=0;aspect=fixed;shape=mxgraph.aws4.resourceIcon;resIcon=mxgraph.aws4.client;" parent="1" vertex="1">
          <mxGeometry x="685" y="458" width="60" height="60" as="geometry" />
        </mxCell>
        <mxCell id="BPoPwKLiZ1-ek6KLwnQ--30" value="" style="endArrow=none;html=1;rounded=0;" parent="1" edge="1">
          <mxGeometry width="50" height="50" relative="1" as="geometry">
            <mxPoint x="592" y="906.8888888888889" as="sourcePoint" />
            <mxPoint x="592" y="52" as="targetPoint" />
          </mxGeometry>
        </mxCell>
        <mxCell id="QgUYkgtsDDtmfUdsTqQF-71" style="rounded=0;orthogonalLoop=1;jettySize=auto;html=1;" parent="1" source="BPoPwKLiZ1-ek6KLwnQ--35" target="QgUYkgtsDDtmfUdsTqQF-70" edge="1">
          <mxGeometry relative="1" as="geometry" />
        </mxCell>
        <mxCell id="QgUYkgtsDDtmfUdsTqQF-73" value="docker push" style="edgeLabel;html=1;align=center;verticalAlign=middle;resizable=0;points=[];" parent="QgUYkgtsDDtmfUdsTqQF-71" vertex="1" connectable="0">
          <mxGeometry x="-0.0359" y="4" relative="1" as="geometry">
            <mxPoint x="13" as="offset" />
          </mxGeometry>
        </mxCell>
        <mxCell id="BPoPwKLiZ1-ek6KLwnQ--35" value="docker runner" style="verticalLabelPosition=bottom;sketch=0;aspect=fixed;html=1;verticalAlign=top;strokeColor=none;align=center;outlineConnect=0;shape=mxgraph.citrix.process;" parent="1" vertex="1">
          <mxGeometry x="947" y="563" width="52" height="62" as="geometry" />
        </mxCell>
        <mxCell id="BPoPwKLiZ1-ek6KLwnQ--37" value="Web Service" style="verticalLabelPosition=bottom;sketch=0;aspect=fixed;html=1;verticalAlign=top;strokeColor=none;align=center;outlineConnect=0;shape=mxgraph.citrix.web_service;" parent="1" vertex="1">
          <mxGeometry x="352" y="668" width="63" height="60" as="geometry" />
        </mxCell>
        <mxCell id="BPoPwKLiZ1-ek6KLwnQ--38" value="Web Service" style="verticalLabelPosition=bottom;sketch=0;aspect=fixed;html=1;verticalAlign=top;strokeColor=none;align=center;outlineConnect=0;shape=mxgraph.citrix.web_service;" parent="1" vertex="1">
          <mxGeometry x="386" y="295" width="63" height="60" as="geometry" />
        </mxCell>
        <mxCell id="BPoPwKLiZ1-ek6KLwnQ--41" style="rounded=0;orthogonalLoop=1;jettySize=auto;html=1;" parent="1" source="BPoPwKLiZ1-ek6KLwnQ--39" target="BPoPwKLiZ1-ek6KLwnQ--40" edge="1">
          <mxGeometry relative="1" as="geometry" />
        </mxCell>
        <mxCell id="BPoPwKLiZ1-ek6KLwnQ--42" value="deploy" style="edgeLabel;html=1;align=center;verticalAlign=middle;resizable=0;points=[];" parent="BPoPwKLiZ1-ek6KLwnQ--41" vertex="1" connectable="0">
          <mxGeometry x="0.2339" y="-2" relative="1" as="geometry">
            <mxPoint y="-22" as="offset" />
          </mxGeometry>
        </mxCell>
        <mxCell id="BPoPwKLiZ1-ek6KLwnQ--39" value="shell runner" style="verticalLabelPosition=bottom;sketch=0;aspect=fixed;html=1;verticalAlign=top;strokeColor=none;align=center;outlineConnect=0;shape=mxgraph.citrix.process;" parent="1" vertex="1">
          <mxGeometry x="1236" y="554" width="52" height="62" as="geometry" />
        </mxCell>
        <mxCell id="BPoPwKLiZ1-ek6KLwnQ--40" value="Web Service" style="verticalLabelPosition=bottom;sketch=0;aspect=fixed;html=1;verticalAlign=top;strokeColor=none;align=center;outlineConnect=0;shape=mxgraph.citrix.web_service;" parent="1" vertex="1">
          <mxGeometry x="1072" y="650" width="63" height="60" as="geometry" />
        </mxCell>
        <mxCell id="QgUYkgtsDDtmfUdsTqQF-2" value="git repo" style="image;image=img/lib/atlassian/Bitbucket_Logo.svg;html=1;labelPosition=center;verticalLabelPosition=top;align=center;verticalAlign=bottom;" parent="1" vertex="1">
          <mxGeometry x="190" y="124" width="57" height="50" as="geometry" />
        </mxCell>
        <mxCell id="QgUYkgtsDDtmfUdsTqQF-3" value="git repo" style="image;image=img/lib/atlassian/Bitbucket_Logo.svg;html=1;labelPosition=center;verticalLabelPosition=top;align=center;verticalAlign=bottom;" parent="1" vertex="1">
          <mxGeometry x="163" y="534" width="57" height="50" as="geometry" />
        </mxCell>
        <mxCell id="QgUYkgtsDDtmfUdsTqQF-4" value="git repo" style="image;image=img/lib/atlassian/Bitbucket_Logo.svg;html=1;labelPosition=center;verticalLabelPosition=top;align=center;verticalAlign=bottom;" parent="1" vertex="1">
          <mxGeometry x="789" y="247" width="57" height="50" as="geometry" />
        </mxCell>
        <mxCell id="QgUYkgtsDDtmfUdsTqQF-16" value="" style="group" parent="1" vertex="1" connectable="0">
          <mxGeometry x="851" y="233" width="419" height="78" as="geometry" />
        </mxCell>
        <mxCell id="QgUYkgtsDDtmfUdsTqQF-8" value="pipeline" style="rounded=0;whiteSpace=wrap;html=1;labelPosition=center;verticalLabelPosition=top;align=center;verticalAlign=bottom;" parent="QgUYkgtsDDtmfUdsTqQF-16" vertex="1">
          <mxGeometry width="419" height="78" as="geometry" />
        </mxCell>
        <mxCell id="QgUYkgtsDDtmfUdsTqQF-9" value="build" style="rounded=1;whiteSpace=wrap;html=1;" parent="QgUYkgtsDDtmfUdsTqQF-16" vertex="1">
          <mxGeometry x="20" y="14.5" width="75" height="49" as="geometry" />
        </mxCell>
        <mxCell id="QgUYkgtsDDtmfUdsTqQF-10" value="test" style="rounded=1;whiteSpace=wrap;html=1;" parent="QgUYkgtsDDtmfUdsTqQF-16" vertex="1">
          <mxGeometry x="122" y="14.5" width="75" height="49" as="geometry" />
        </mxCell>
        <mxCell id="QgUYkgtsDDtmfUdsTqQF-13" value="" style="edgeStyle=orthogonalEdgeStyle;rounded=0;orthogonalLoop=1;jettySize=auto;html=1;" parent="QgUYkgtsDDtmfUdsTqQF-16" source="QgUYkgtsDDtmfUdsTqQF-9" target="QgUYkgtsDDtmfUdsTqQF-10" edge="1">
          <mxGeometry relative="1" as="geometry" />
        </mxCell>
        <mxCell id="QgUYkgtsDDtmfUdsTqQF-11" value="release" style="rounded=1;whiteSpace=wrap;html=1;" parent="QgUYkgtsDDtmfUdsTqQF-16" vertex="1">
          <mxGeometry x="223" y="14.5" width="75" height="49" as="geometry" />
        </mxCell>
        <mxCell id="QgUYkgtsDDtmfUdsTqQF-14" value="" style="edgeStyle=orthogonalEdgeStyle;rounded=0;orthogonalLoop=1;jettySize=auto;html=1;" parent="QgUYkgtsDDtmfUdsTqQF-16" source="QgUYkgtsDDtmfUdsTqQF-10" target="QgUYkgtsDDtmfUdsTqQF-11" edge="1">
          <mxGeometry relative="1" as="geometry" />
        </mxCell>
        <mxCell id="QgUYkgtsDDtmfUdsTqQF-12" value="deploy" style="rounded=1;whiteSpace=wrap;html=1;" parent="QgUYkgtsDDtmfUdsTqQF-16" vertex="1">
          <mxGeometry x="324" y="14.5" width="75" height="49" as="geometry" />
        </mxCell>
        <mxCell id="QgUYkgtsDDtmfUdsTqQF-15" value="" style="edgeStyle=orthogonalEdgeStyle;rounded=0;orthogonalLoop=1;jettySize=auto;html=1;" parent="QgUYkgtsDDtmfUdsTqQF-16" source="QgUYkgtsDDtmfUdsTqQF-11" target="QgUYkgtsDDtmfUdsTqQF-12" edge="1">
          <mxGeometry relative="1" as="geometry" />
        </mxCell>
        <mxCell id="QgUYkgtsDDtmfUdsTqQF-17" style="rounded=0;orthogonalLoop=1;jettySize=auto;html=1;dashed=1;dashPattern=1 1;" parent="1" source="QgUYkgtsDDtmfUdsTqQF-9" target="BPoPwKLiZ1-ek6KLwnQ--35" edge="1">
          <mxGeometry relative="1" as="geometry" />
        </mxCell>
        <mxCell id="QgUYkgtsDDtmfUdsTqQF-18" style="rounded=0;orthogonalLoop=1;jettySize=auto;html=1;dashed=1;dashPattern=1 1;" parent="1" source="QgUYkgtsDDtmfUdsTqQF-10" target="BPoPwKLiZ1-ek6KLwnQ--35" edge="1">
          <mxGeometry relative="1" as="geometry" />
        </mxCell>
        <mxCell id="QgUYkgtsDDtmfUdsTqQF-19" style="rounded=0;orthogonalLoop=1;jettySize=auto;html=1;dashed=1;dashPattern=1 1;" parent="1" source="QgUYkgtsDDtmfUdsTqQF-11" target="BPoPwKLiZ1-ek6KLwnQ--35" edge="1">
          <mxGeometry relative="1" as="geometry" />
        </mxCell>
        <mxCell id="QgUYkgtsDDtmfUdsTqQF-20" style="rounded=0;orthogonalLoop=1;jettySize=auto;html=1;dashed=1;dashPattern=1 1;" parent="1" source="QgUYkgtsDDtmfUdsTqQF-12" target="BPoPwKLiZ1-ek6KLwnQ--39" edge="1">
          <mxGeometry relative="1" as="geometry" />
        </mxCell>
        <mxCell id="QgUYkgtsDDtmfUdsTqQF-22" value="" style="endArrow=none;html=1;rounded=0;" parent="1" edge="1">
          <mxGeometry width="50" height="50" relative="1" as="geometry">
            <mxPoint x="1486" y="874.8888888888889" as="sourcePoint" />
            <mxPoint x="1486" y="20" as="targetPoint" />
          </mxGeometry>
        </mxCell>
        <mxCell id="QgUYkgtsDDtmfUdsTqQF-23" value="" style="rounded=1;arcSize=10;dashed=1;fillColor=none;gradientColor=none;dashPattern=1 1;strokeWidth=2;" parent="1" vertex="1">
          <mxGeometry x="1691.3" y="241" width="534.7" height="202" as="geometry" />
        </mxCell>
        <mxCell id="QgUYkgtsDDtmfUdsTqQF-25" style="rounded=0;orthogonalLoop=1;jettySize=auto;html=1;entryX=0.25;entryY=1;entryDx=0;entryDy=0;fontColor=#FF0000;strokeColor=#FF0000;" parent="1" source="QgUYkgtsDDtmfUdsTqQF-27" target="QgUYkgtsDDtmfUdsTqQF-33" edge="1">
          <mxGeometry relative="1" as="geometry">
            <mxPoint x="1732" y="367" as="targetPoint" />
          </mxGeometry>
        </mxCell>
        <mxCell id="QgUYkgtsDDtmfUdsTqQF-26" value="git push" style="edgeLabel;html=1;align=center;verticalAlign=middle;resizable=0;points=[];fontColor=#FF0000;" parent="QgUYkgtsDDtmfUdsTqQF-25" vertex="1" connectable="0">
          <mxGeometry x="-0.086" y="3" relative="1" as="geometry">
            <mxPoint x="-24" y="-5" as="offset" />
          </mxGeometry>
        </mxCell>
        <mxCell id="QgUYkgtsDDtmfUdsTqQF-27" value="Client" style="sketch=0;outlineConnect=0;fontColor=#232F3E;gradientColor=none;strokeColor=#232F3E;fillColor=#ffffff;dashed=0;verticalLabelPosition=bottom;verticalAlign=top;align=center;html=1;fontSize=12;fontStyle=0;aspect=fixed;shape=mxgraph.aws4.resourceIcon;resIcon=mxgraph.aws4.client;" parent="1" vertex="1">
          <mxGeometry x="1619" y="528" width="60" height="60" as="geometry" />
        </mxCell>
        <mxCell id="QgUYkgtsDDtmfUdsTqQF-29" style="rounded=0;orthogonalLoop=1;jettySize=auto;html=1;" parent="1" source="QgUYkgtsDDtmfUdsTqQF-31" target="QgUYkgtsDDtmfUdsTqQF-32" edge="1">
          <mxGeometry relative="1" as="geometry" />
        </mxCell>
        <mxCell id="QgUYkgtsDDtmfUdsTqQF-30" value="deploy" style="edgeLabel;html=1;align=center;verticalAlign=middle;resizable=0;points=[];" parent="QgUYkgtsDDtmfUdsTqQF-29" vertex="1" connectable="0">
          <mxGeometry x="0.2339" y="-2" relative="1" as="geometry">
            <mxPoint y="-22" as="offset" />
          </mxGeometry>
        </mxCell>
        <mxCell id="QgUYkgtsDDtmfUdsTqQF-31" value="shell runner" style="verticalLabelPosition=bottom;sketch=0;aspect=fixed;html=1;verticalAlign=top;strokeColor=none;align=center;outlineConnect=0;shape=mxgraph.citrix.process;" parent="1" vertex="1">
          <mxGeometry x="2469.5" y="458" width="52" height="62" as="geometry" />
        </mxCell>
        <mxCell id="QgUYkgtsDDtmfUdsTqQF-32" value="Web Service" style="verticalLabelPosition=bottom;sketch=0;aspect=fixed;html=1;verticalAlign=top;strokeColor=none;align=center;outlineConnect=0;shape=mxgraph.citrix.web_service;" parent="1" vertex="1">
          <mxGeometry x="2602" y="458" width="63" height="60" as="geometry" />
        </mxCell>
        <mxCell id="QgUYkgtsDDtmfUdsTqQF-33" value="git repo" style="image;image=img/lib/atlassian/Bitbucket_Logo.svg;html=1;labelPosition=center;verticalLabelPosition=top;align=center;verticalAlign=bottom;" parent="1" vertex="1">
          <mxGeometry x="1723" y="317" width="57" height="50" as="geometry" />
        </mxCell>
        <mxCell id="QgUYkgtsDDtmfUdsTqQF-34" value="" style="group" parent="1" vertex="1" connectable="0">
          <mxGeometry x="1785" y="303" width="419" height="78" as="geometry" />
        </mxCell>
        <mxCell id="QgUYkgtsDDtmfUdsTqQF-35" value="pipeline" style="rounded=0;whiteSpace=wrap;html=1;labelPosition=center;verticalLabelPosition=top;align=center;verticalAlign=bottom;" parent="QgUYkgtsDDtmfUdsTqQF-34" vertex="1">
          <mxGeometry width="419" height="78" as="geometry" />
        </mxCell>
        <mxCell id="QgUYkgtsDDtmfUdsTqQF-36" value="build" style="rounded=1;whiteSpace=wrap;html=1;" parent="QgUYkgtsDDtmfUdsTqQF-34" vertex="1">
          <mxGeometry x="20" y="14.5" width="75" height="49" as="geometry" />
        </mxCell>
        <mxCell id="QgUYkgtsDDtmfUdsTqQF-37" value="test" style="rounded=1;whiteSpace=wrap;html=1;" parent="QgUYkgtsDDtmfUdsTqQF-34" vertex="1">
          <mxGeometry x="122" y="14.5" width="75" height="49" as="geometry" />
        </mxCell>
        <mxCell id="QgUYkgtsDDtmfUdsTqQF-38" value="" style="edgeStyle=orthogonalEdgeStyle;rounded=0;orthogonalLoop=1;jettySize=auto;html=1;" parent="QgUYkgtsDDtmfUdsTqQF-34" source="QgUYkgtsDDtmfUdsTqQF-36" target="QgUYkgtsDDtmfUdsTqQF-37" edge="1">
          <mxGeometry relative="1" as="geometry" />
        </mxCell>
        <mxCell id="QgUYkgtsDDtmfUdsTqQF-39" value="release" style="rounded=1;whiteSpace=wrap;html=1;" parent="QgUYkgtsDDtmfUdsTqQF-34" vertex="1">
          <mxGeometry x="223" y="14.5" width="75" height="49" as="geometry" />
        </mxCell>
        <mxCell id="QgUYkgtsDDtmfUdsTqQF-40" value="" style="edgeStyle=orthogonalEdgeStyle;rounded=0;orthogonalLoop=1;jettySize=auto;html=1;" parent="QgUYkgtsDDtmfUdsTqQF-34" source="QgUYkgtsDDtmfUdsTqQF-37" target="QgUYkgtsDDtmfUdsTqQF-39" edge="1">
          <mxGeometry relative="1" as="geometry" />
        </mxCell>
        <mxCell id="QgUYkgtsDDtmfUdsTqQF-41" value="deploy" style="rounded=1;whiteSpace=wrap;html=1;" parent="QgUYkgtsDDtmfUdsTqQF-34" vertex="1">
          <mxGeometry x="324" y="14.5" width="75" height="49" as="geometry" />
        </mxCell>
        <mxCell id="QgUYkgtsDDtmfUdsTqQF-42" value="" style="edgeStyle=orthogonalEdgeStyle;rounded=0;orthogonalLoop=1;jettySize=auto;html=1;" parent="QgUYkgtsDDtmfUdsTqQF-34" source="QgUYkgtsDDtmfUdsTqQF-39" target="QgUYkgtsDDtmfUdsTqQF-41" edge="1">
          <mxGeometry relative="1" as="geometry" />
        </mxCell>
        <mxCell id="QgUYkgtsDDtmfUdsTqQF-43" style="rounded=0;orthogonalLoop=1;jettySize=auto;html=1;dashed=1;dashPattern=1 4;" parent="1" source="QgUYkgtsDDtmfUdsTqQF-36" target="QgUYkgtsDDtmfUdsTqQF-28" edge="1">
          <mxGeometry relative="1" as="geometry" />
        </mxCell>
        <mxCell id="QgUYkgtsDDtmfUdsTqQF-44" style="rounded=0;orthogonalLoop=1;jettySize=auto;html=1;dashed=1;dashPattern=1 4;" parent="1" source="QgUYkgtsDDtmfUdsTqQF-37" target="QgUYkgtsDDtmfUdsTqQF-28" edge="1">
          <mxGeometry relative="1" as="geometry" />
        </mxCell>
        <mxCell id="QgUYkgtsDDtmfUdsTqQF-45" style="rounded=0;orthogonalLoop=1;jettySize=auto;html=1;dashed=1;dashPattern=1 4;" parent="1" source="QgUYkgtsDDtmfUdsTqQF-39" target="QgUYkgtsDDtmfUdsTqQF-28" edge="1">
          <mxGeometry relative="1" as="geometry" />
        </mxCell>
        <mxCell id="QgUYkgtsDDtmfUdsTqQF-46" style="rounded=0;orthogonalLoop=1;jettySize=auto;html=1;dashed=1;dashPattern=1 4;" parent="1" source="QgUYkgtsDDtmfUdsTqQF-41" target="QgUYkgtsDDtmfUdsTqQF-31" edge="1">
          <mxGeometry relative="1" as="geometry" />
        </mxCell>
        <mxCell id="QgUYkgtsDDtmfUdsTqQF-51" value="" style="group" parent="1" vertex="1" connectable="0">
          <mxGeometry x="1846" y="511" width="118" height="119" as="geometry" />
        </mxCell>
        <mxCell id="QgUYkgtsDDtmfUdsTqQF-24" value="" style="rounded=1;arcSize=10;dashed=1;strokeColor=#67AB9F;fillColor=none;gradientColor=none;dashPattern=8 4;strokeWidth=2;labelPosition=center;verticalLabelPosition=bottom;align=center;verticalAlign=top;" parent="QgUYkgtsDDtmfUdsTqQF-51" vertex="1">
          <mxGeometry width="118" height="119" as="geometry" />
        </mxCell>
        <mxCell id="QgUYkgtsDDtmfUdsTqQF-28" value="" style="verticalLabelPosition=bottom;sketch=0;aspect=fixed;html=1;verticalAlign=top;strokeColor=none;align=center;outlineConnect=0;shape=mxgraph.citrix.process;" parent="QgUYkgtsDDtmfUdsTqQF-51" vertex="1">
          <mxGeometry x="34" y="17" width="52" height="62" as="geometry" />
        </mxCell>
        <mxCell id="QgUYkgtsDDtmfUdsTqQF-58" value="" style="group" parent="1" vertex="1" connectable="0">
          <mxGeometry x="1856" y="521" width="118" height="119" as="geometry" />
        </mxCell>
        <mxCell id="QgUYkgtsDDtmfUdsTqQF-59" value="" style="rounded=1;arcSize=10;dashed=1;strokeColor=#67AB9F;fillColor=none;gradientColor=none;dashPattern=8 4;strokeWidth=2;labelPosition=center;verticalLabelPosition=bottom;align=center;verticalAlign=top;" parent="QgUYkgtsDDtmfUdsTqQF-58" vertex="1">
          <mxGeometry width="118" height="119" as="geometry" />
        </mxCell>
        <mxCell id="QgUYkgtsDDtmfUdsTqQF-60" value="" style="verticalLabelPosition=bottom;sketch=0;aspect=fixed;html=1;verticalAlign=top;strokeColor=none;align=center;outlineConnect=0;shape=mxgraph.citrix.process;" parent="QgUYkgtsDDtmfUdsTqQF-58" vertex="1">
          <mxGeometry x="34" y="17" width="52" height="62" as="geometry" />
        </mxCell>
        <mxCell id="QgUYkgtsDDtmfUdsTqQF-61" value="" style="group" parent="1" vertex="1" connectable="0">
          <mxGeometry x="1866" y="531" width="118" height="119" as="geometry" />
        </mxCell>
        <mxCell id="QgUYkgtsDDtmfUdsTqQF-62" value="Server" style="rounded=1;arcSize=10;dashed=1;strokeColor=#67AB9F;fillColor=none;gradientColor=none;dashPattern=8 4;strokeWidth=2;labelPosition=center;verticalLabelPosition=bottom;align=center;verticalAlign=top;" parent="QgUYkgtsDDtmfUdsTqQF-61" vertex="1">
          <mxGeometry width="118" height="119" as="geometry" />
        </mxCell>
        <mxCell id="QgUYkgtsDDtmfUdsTqQF-63" value="docker runner" style="verticalLabelPosition=bottom;sketch=0;aspect=fixed;html=1;verticalAlign=top;strokeColor=none;align=center;outlineConnect=0;shape=mxgraph.citrix.process;" parent="QgUYkgtsDDtmfUdsTqQF-61" vertex="1">
          <mxGeometry x="34" y="17" width="52" height="62" as="geometry" />
        </mxCell>
        <mxCell id="QgUYkgtsDDtmfUdsTqQF-66" style="rounded=0;orthogonalLoop=1;jettySize=auto;html=1;" parent="1" source="QgUYkgtsDDtmfUdsTqQF-65" target="QgUYkgtsDDtmfUdsTqQF-31" edge="1">
          <mxGeometry relative="1" as="geometry">
            <mxPoint x="2374.6666666666665" y="508.66666666666663" as="targetPoint" />
          </mxGeometry>
        </mxCell>
        <mxCell id="QgUYkgtsDDtmfUdsTqQF-67" value="docker pull" style="edgeLabel;html=1;align=center;verticalAlign=middle;resizable=0;points=[];" parent="QgUYkgtsDDtmfUdsTqQF-66" vertex="1" connectable="0">
          <mxGeometry x="0.0564" y="4" relative="1" as="geometry">
            <mxPoint x="9" y="15" as="offset" />
          </mxGeometry>
        </mxCell>
        <mxCell id="QgUYkgtsDDtmfUdsTqQF-65" value="Registry" style="verticalLabelPosition=bottom;sketch=0;aspect=fixed;html=1;verticalAlign=top;strokeColor=none;align=center;outlineConnect=0;shape=mxgraph.citrix.database;" parent="1" vertex="1">
          <mxGeometry x="2157" y="534" width="42.5" height="50" as="geometry" />
        </mxCell>
        <mxCell id="QgUYkgtsDDtmfUdsTqQF-68" style="rounded=0;orthogonalLoop=1;jettySize=auto;html=1;" parent="1" source="QgUYkgtsDDtmfUdsTqQF-63" target="QgUYkgtsDDtmfUdsTqQF-65" edge="1">
          <mxGeometry relative="1" as="geometry" />
        </mxCell>
        <mxCell id="QgUYkgtsDDtmfUdsTqQF-69" value="docker push" style="edgeLabel;html=1;align=center;verticalAlign=middle;resizable=0;points=[];" parent="QgUYkgtsDDtmfUdsTqQF-68" vertex="1" connectable="0">
          <mxGeometry x="-0.1738" relative="1" as="geometry">
            <mxPoint x="24" y="8" as="offset" />
          </mxGeometry>
        </mxCell>
        <mxCell id="QgUYkgtsDDtmfUdsTqQF-72" style="rounded=0;orthogonalLoop=1;jettySize=auto;html=1;" parent="1" source="QgUYkgtsDDtmfUdsTqQF-70" target="BPoPwKLiZ1-ek6KLwnQ--39" edge="1">
          <mxGeometry relative="1" as="geometry" />
        </mxCell>
        <mxCell id="QgUYkgtsDDtmfUdsTqQF-74" value="docker pull" style="edgeLabel;html=1;align=center;verticalAlign=middle;resizable=0;points=[];" parent="QgUYkgtsDDtmfUdsTqQF-72" vertex="1" connectable="0">
          <mxGeometry x="-0.0608" y="2" relative="1" as="geometry">
            <mxPoint as="offset" />
          </mxGeometry>
        </mxCell>
        <mxCell id="QgUYkgtsDDtmfUdsTqQF-70" value="Registry" style="verticalLabelPosition=top;sketch=0;aspect=fixed;html=1;verticalAlign=bottom;strokeColor=none;align=center;outlineConnect=0;shape=mxgraph.citrix.database;labelPosition=center;" parent="1" vertex="1">
          <mxGeometry x="1088" y="420" width="42.5" height="50" as="geometry" />
        </mxCell>
      </root>
    </mxGraphModel>
  </diagram>
  <diagram name="pipeline" id="SY30wLD6wGEBtbwB7DWH">
    <mxGraphModel dx="1706" dy="1236" grid="0" gridSize="10" guides="1" tooltips="1" connect="1" arrows="1" fold="1" page="0" pageScale="1" pageWidth="827" pageHeight="1169" math="0" shadow="0">
      <root>
        <mxCell id="0" />
        <mxCell id="1" parent="0" />
        <mxCell id="mrL5HC_aenBktfrGBSwe-27" value="" style="rounded=0;whiteSpace=wrap;html=1;labelPosition=right;verticalLabelPosition=middle;align=left;verticalAlign=middle;fontSize=16;" parent="1" vertex="1">
          <mxGeometry x="267" y="278" width="109" height="429" as="geometry" />
        </mxCell>
        <mxCell id="mrL5HC_aenBktfrGBSwe-12" style="rounded=0;orthogonalLoop=1;jettySize=auto;html=1;entryX=0.5;entryY=0;entryDx=0;entryDy=0;" parent="1" source="mrL5HC_aenBktfrGBSwe-8" target="mrL5HC_aenBktfrGBSwe-27" edge="1">
          <mxGeometry relative="1" as="geometry">
            <mxPoint x="322" y="8.000000000000114" as="targetPoint" />
          </mxGeometry>
        </mxCell>
        <mxCell id="mrL5HC_aenBktfrGBSwe-13" value="trigger pipeline" style="edgeLabel;html=1;align=center;verticalAlign=middle;resizable=0;points=[];" parent="mrL5HC_aenBktfrGBSwe-12" vertex="1" connectable="0">
          <mxGeometry x="-0.4562" y="2" relative="1" as="geometry">
            <mxPoint x="46" y="19" as="offset" />
          </mxGeometry>
        </mxCell>
        <mxCell id="mrL5HC_aenBktfrGBSwe-3" style="edgeStyle=none;curved=1;rounded=0;orthogonalLoop=1;jettySize=auto;html=1;fontSize=16;startSize=8;endSize=8;entryX=0;entryY=0.5;entryDx=0;entryDy=0;entryPerimeter=0;" parent="1" source="mrL5HC_aenBktfrGBSwe-1" target="mrL5HC_aenBktfrGBSwe-5" edge="1">
          <mxGeometry relative="1" as="geometry">
            <mxPoint x="-68" y="114" as="targetPoint" />
          </mxGeometry>
        </mxCell>
        <mxCell id="mrL5HC_aenBktfrGBSwe-4" value="git push" style="edgeLabel;html=1;align=center;verticalAlign=middle;resizable=0;points=[];fontSize=16;" parent="mrL5HC_aenBktfrGBSwe-3" vertex="1" connectable="0">
          <mxGeometry x="-0.2211" y="1" relative="1" as="geometry">
            <mxPoint x="15" y="11" as="offset" />
          </mxGeometry>
        </mxCell>
        <mxCell id="mrL5HC_aenBktfrGBSwe-1" value="" style="sketch=0;outlineConnect=0;fontColor=#232F3E;gradientColor=none;fillColor=#232F3D;strokeColor=none;dashed=0;verticalLabelPosition=bottom;verticalAlign=top;align=center;html=1;fontSize=16;fontStyle=0;aspect=fixed;pointerEvents=1;shape=mxgraph.aws4.client;" parent="1" vertex="1">
          <mxGeometry x="-323" y="72" width="78" height="76" as="geometry" />
        </mxCell>
        <mxCell id="mrL5HC_aenBktfrGBSwe-5" value="git repo" style="verticalLabelPosition=bottom;html=1;verticalAlign=top;align=center;strokeColor=none;fillColor=#00BEF2;shape=mxgraph.azure.git_repository;fontSize=16;" parent="1" vertex="1">
          <mxGeometry x="46" y="89" width="50" height="50" as="geometry" />
        </mxCell>
        <mxCell id="mrL5HC_aenBktfrGBSwe-7" value="&lt;h1 style=&quot;line-height: 50%;&quot;&gt;&lt;font face=&quot;Verdana&quot;&gt;Source Code&lt;/font&gt;&lt;/h1&gt;&lt;p style=&quot;line-height: 50%;&quot;&gt;&lt;span style=&quot;font-family: Verdana; background-color: initial;&quot;&gt;env/&lt;/span&gt;&lt;br&gt;&lt;/p&gt;&lt;p style=&quot;line-height: 50%;&quot;&gt;&lt;font face=&quot;Verdana&quot;&gt;src/&lt;/font&gt;&lt;/p&gt;&lt;p style=&quot;line-height: 50%;&quot;&gt;&lt;font face=&quot;Verdana&quot;&gt;tests/&lt;/font&gt;&lt;/p&gt;&lt;p style=&quot;line-height: 50%;&quot;&gt;&lt;font face=&quot;Verdana&quot;&gt;docker-compose.yml&lt;/font&gt;&lt;/p&gt;&lt;p style=&quot;line-height: 50%;&quot;&gt;&lt;font face=&quot;Verdana&quot;&gt;Dockerfile&lt;/font&gt;&lt;/p&gt;&lt;p style=&quot;line-height: 50%;&quot;&gt;&lt;font color=&quot;#ff0000&quot;&gt;PIPELINE_TRIGGER_FILE.yml&lt;br&gt;&lt;/font&gt;&lt;/p&gt;&lt;p style=&quot;line-height: 50%;&quot;&gt;README.md&lt;/p&gt;" style="text;html=1;strokeColor=default;fillColor=none;spacing=5;spacingTop=-20;whiteSpace=wrap;overflow=hidden;rounded=0;fontSize=16;" parent="1" vertex="1">
          <mxGeometry x="-146" y="363" width="246" height="226.5" as="geometry" />
        </mxCell>
        <mxCell id="mrL5HC_aenBktfrGBSwe-47" style="edgeStyle=orthogonalEdgeStyle;rounded=0;orthogonalLoop=1;jettySize=auto;html=1;entryX=1;entryY=0.5;entryDx=0;entryDy=0;entryPerimeter=0;" parent="1" source="mrL5HC_aenBktfrGBSwe-8" target="mrL5HC_aenBktfrGBSwe-5" edge="1">
          <mxGeometry relative="1" as="geometry" />
        </mxCell>
        <mxCell id="mrL5HC_aenBktfrGBSwe-8" value="Event Listener" style="aspect=fixed;perimeter=ellipsePerimeter;html=1;align=center;shadow=0;dashed=0;fontColor=#4277BB;labelBackgroundColor=#ffffff;fontSize=16;spacingTop=3;image;image=img/lib/ibm/vpc/Rules.svg;labelPosition=center;verticalLabelPosition=top;verticalAlign=bottom;" parent="1" vertex="1">
          <mxGeometry x="292" y="84" width="60" height="60" as="geometry" />
        </mxCell>
        <mxCell id="mrL5HC_aenBktfrGBSwe-14" style="edgeStyle=none;curved=1;rounded=0;orthogonalLoop=1;jettySize=auto;html=1;fontSize=16;startSize=8;endSize=8;entryX=0.24;entryY=0.24;entryDx=0;entryDy=0;entryPerimeter=0;" parent="1" target="mrL5HC_aenBktfrGBSwe-5" edge="1">
          <mxGeometry relative="1" as="geometry">
            <mxPoint x="-121" y="-3" as="sourcePoint" />
            <mxPoint x="-104" y="124" as="targetPoint" />
          </mxGeometry>
        </mxCell>
        <mxCell id="mrL5HC_aenBktfrGBSwe-15" value="pull request" style="edgeLabel;html=1;align=center;verticalAlign=middle;resizable=0;points=[];fontSize=16;" parent="mrL5HC_aenBktfrGBSwe-14" vertex="1" connectable="0">
          <mxGeometry x="-0.2211" y="1" relative="1" as="geometry">
            <mxPoint x="32" y="-19" as="offset" />
          </mxGeometry>
        </mxCell>
        <mxCell id="mrL5HC_aenBktfrGBSwe-16" style="edgeStyle=none;curved=1;rounded=0;orthogonalLoop=1;jettySize=auto;html=1;fontSize=16;startSize=8;endSize=8;entryX=0.1;entryY=0.331;entryDx=0;entryDy=0;entryPerimeter=0;" parent="1" target="mrL5HC_aenBktfrGBSwe-5" edge="1">
          <mxGeometry relative="1" as="geometry">
            <mxPoint x="-209" y="13" as="sourcePoint" />
            <mxPoint x="176" y="62" as="targetPoint" />
          </mxGeometry>
        </mxCell>
        <mxCell id="mrL5HC_aenBktfrGBSwe-17" value="merge success" style="edgeLabel;html=1;align=center;verticalAlign=middle;resizable=0;points=[];fontSize=16;" parent="mrL5HC_aenBktfrGBSwe-16" vertex="1" connectable="0">
          <mxGeometry x="-0.2211" y="1" relative="1" as="geometry">
            <mxPoint x="19" y="22" as="offset" />
          </mxGeometry>
        </mxCell>
        <mxCell id="mrL5HC_aenBktfrGBSwe-22" value="" style="edgeStyle=orthogonalEdgeStyle;rounded=0;orthogonalLoop=1;jettySize=auto;html=1;" parent="1" source="mrL5HC_aenBktfrGBSwe-18" target="mrL5HC_aenBktfrGBSwe-21" edge="1">
          <mxGeometry relative="1" as="geometry" />
        </mxCell>
        <mxCell id="mrL5HC_aenBktfrGBSwe-18" value="build" style="rounded=1;whiteSpace=wrap;html=1;fillColor=#dae8fc;strokeColor=#6c8ebf;" parent="1" vertex="1">
          <mxGeometry x="293.5" y="306" width="56" height="34" as="geometry" />
        </mxCell>
        <mxCell id="mrL5HC_aenBktfrGBSwe-19" value="filter / pipe" style="rounded=1;whiteSpace=wrap;html=1;fillColor=#dae8fc;strokeColor=#6c8ebf;" parent="1" vertex="1">
          <mxGeometry x="393" y="354" width="56" height="34" as="geometry" />
        </mxCell>
        <mxCell id="mrL5HC_aenBktfrGBSwe-24" value="" style="edgeStyle=orthogonalEdgeStyle;rounded=0;orthogonalLoop=1;jettySize=auto;html=1;" parent="1" source="mrL5HC_aenBktfrGBSwe-21" target="mrL5HC_aenBktfrGBSwe-23" edge="1">
          <mxGeometry relative="1" as="geometry" />
        </mxCell>
        <mxCell id="mrL5HC_aenBktfrGBSwe-21" value="test" style="rounded=1;whiteSpace=wrap;html=1;fillColor=#dae8fc;strokeColor=#6c8ebf;" parent="1" vertex="1">
          <mxGeometry x="293.5" y="420" width="56" height="34" as="geometry" />
        </mxCell>
        <mxCell id="mrL5HC_aenBktfrGBSwe-26" value="" style="edgeStyle=orthogonalEdgeStyle;rounded=0;orthogonalLoop=1;jettySize=auto;html=1;" parent="1" source="mrL5HC_aenBktfrGBSwe-23" target="mrL5HC_aenBktfrGBSwe-25" edge="1">
          <mxGeometry relative="1" as="geometry" />
        </mxCell>
        <mxCell id="mrL5HC_aenBktfrGBSwe-23" value="deploy" style="rounded=1;whiteSpace=wrap;html=1;fillColor=#dae8fc;strokeColor=#6c8ebf;" parent="1" vertex="1">
          <mxGeometry x="293.5" y="534" width="56" height="34" as="geometry" />
        </mxCell>
        <mxCell id="mrL5HC_aenBktfrGBSwe-25" value="notify" style="rounded=1;whiteSpace=wrap;html=1;fillColor=#dae8fc;strokeColor=#6c8ebf;" parent="1" vertex="1">
          <mxGeometry x="293.5" y="648" width="56" height="34" as="geometry" />
        </mxCell>
        <mxCell id="mrL5HC_aenBktfrGBSwe-29" value="定義了 pipeline" style="shape=flexArrow;endArrow=classic;html=1;rounded=0;" parent="1" edge="1">
          <mxGeometry x="-0.0382" y="-18" width="50" height="50" relative="1" as="geometry">
            <mxPoint x="89" y="541" as="sourcePoint" />
            <mxPoint x="266" y="530" as="targetPoint" />
            <mxPoint as="offset" />
          </mxGeometry>
        </mxCell>
        <mxCell id="mrL5HC_aenBktfrGBSwe-48" style="edgeStyle=none;curved=1;rounded=0;orthogonalLoop=1;jettySize=auto;html=1;fontSize=16;startSize=8;endSize=8;entryX=0.24;entryY=0.76;entryDx=0;entryDy=0;entryPerimeter=0;" parent="1" target="mrL5HC_aenBktfrGBSwe-5" edge="1">
          <mxGeometry relative="1" as="geometry">
            <mxPoint x="-204" y="205" as="sourcePoint" />
            <mxPoint x="107" y="72" as="targetPoint" />
          </mxGeometry>
        </mxCell>
        <mxCell id="mrL5HC_aenBktfrGBSwe-49" value="other events" style="edgeLabel;html=1;align=center;verticalAlign=middle;resizable=0;points=[];fontSize=16;" parent="mrL5HC_aenBktfrGBSwe-48" vertex="1" connectable="0">
          <mxGeometry x="-0.2211" y="1" relative="1" as="geometry">
            <mxPoint x="23" y="18" as="offset" />
          </mxGeometry>
        </mxCell>
      </root>
    </mxGraphModel>
  </diagram>
  <diagram id="vnxh5kCSEIIOPdDxAZR7" name="runner">
    <mxGraphModel dx="1781" dy="1725" grid="1" gridSize="10" guides="1" tooltips="1" connect="1" arrows="1" fold="1" page="1" pageScale="1" pageWidth="827" pageHeight="1169" math="0" shadow="0">
      <root>
        <mxCell id="0" />
        <mxCell id="1" parent="0" />
        <mxCell id="R8H1wgWXsZs8RLJjWXsM-1" style="rounded=0;orthogonalLoop=1;jettySize=auto;html=1;entryX=0.5;entryY=1;entryDx=0;entryDy=0;entryPerimeter=0;exitX=1;exitY=0.25;exitDx=0;exitDy=0;" edge="1" parent="1" source="R8H1wgWXsZs8RLJjWXsM-8" target="R8H1wgWXsZs8RLJjWXsM-5">
          <mxGeometry relative="1" as="geometry" />
        </mxCell>
        <mxCell id="R8H1wgWXsZs8RLJjWXsM-2" style="rounded=0;orthogonalLoop=1;jettySize=auto;html=1;entryX=0.5;entryY=1;entryDx=0;entryDy=0;entryPerimeter=0;exitX=1;exitY=0.5;exitDx=0;exitDy=0;" edge="1" parent="1" source="R8H1wgWXsZs8RLJjWXsM-8" target="R8H1wgWXsZs8RLJjWXsM-6">
          <mxGeometry relative="1" as="geometry" />
        </mxCell>
        <mxCell id="R8H1wgWXsZs8RLJjWXsM-3" style="rounded=0;orthogonalLoop=1;jettySize=auto;html=1;entryX=0.5;entryY=1;entryDx=0;entryDy=0;entryPerimeter=0;exitX=1;exitY=0.75;exitDx=0;exitDy=0;" edge="1" parent="1" source="R8H1wgWXsZs8RLJjWXsM-8" target="R8H1wgWXsZs8RLJjWXsM-7">
          <mxGeometry relative="1" as="geometry" />
        </mxCell>
        <mxCell id="R8H1wgWXsZs8RLJjWXsM-4" value="Bitbucket" style="verticalLabelPosition=bottom;html=1;verticalAlign=top;align=center;strokeColor=none;fillColor=#00BEF2;shape=mxgraph.azure.git_repository;fontSize=16;" vertex="1" parent="1">
          <mxGeometry x="-463" y="-316" width="50" height="50" as="geometry" />
        </mxCell>
        <mxCell id="R8H1wgWXsZs8RLJjWXsM-5" value="Cloud Runner Queue" style="shape=cylinder3;whiteSpace=wrap;html=1;boundedLbl=1;backgroundOutline=1;size=15;fillColor=#dae8fc;strokeColor=#6c8ebf;direction=south;" vertex="1" parent="1">
          <mxGeometry x="-116" y="-446" width="170" height="60" as="geometry" />
        </mxCell>
        <mxCell id="R8H1wgWXsZs8RLJjWXsM-6" value="Docker Runner Queue" style="shape=cylinder3;whiteSpace=wrap;html=1;boundedLbl=1;backgroundOutline=1;size=15;fillColor=#d5e8d4;strokeColor=#82b366;direction=south;" vertex="1" parent="1">
          <mxGeometry x="-116" y="-321" width="170" height="60" as="geometry" />
        </mxCell>
        <mxCell id="R8H1wgWXsZs8RLJjWXsM-7" value="Shell Runner Queue" style="shape=cylinder3;whiteSpace=wrap;html=1;boundedLbl=1;backgroundOutline=1;size=15;fillColor=#d5e8d4;strokeColor=#82b366;direction=south;" vertex="1" parent="1">
          <mxGeometry x="-116" y="-197" width="170" height="60" as="geometry" />
        </mxCell>
        <mxCell id="R8H1wgWXsZs8RLJjWXsM-8" value="bitbucket-pipeline.yml" style="text;html=1;strokeColor=#b85450;fillColor=#f8cecc;align=center;verticalAlign=middle;whiteSpace=wrap;rounded=0;" vertex="1" parent="1">
          <mxGeometry x="-401" y="-309" width="133" height="30" as="geometry" />
        </mxCell>
        <mxCell id="R8H1wgWXsZs8RLJjWXsM-9" style="edgeStyle=orthogonalEdgeStyle;rounded=0;orthogonalLoop=1;jettySize=auto;html=1;entryX=0.5;entryY=0;entryDx=0;entryDy=0;entryPerimeter=0;" edge="1" parent="1" source="R8H1wgWXsZs8RLJjWXsM-10" target="R8H1wgWXsZs8RLJjWXsM-7">
          <mxGeometry relative="1" as="geometry" />
        </mxCell>
        <mxCell id="R8H1wgWXsZs8RLJjWXsM-10" value="shell runner" style="aspect=fixed;html=1;points=[];align=center;image;fontSize=12;image=img/lib/azure2/other/Worker_Container_App.svg;" vertex="1" parent="1">
          <mxGeometry x="188" y="-200" width="68" height="66" as="geometry" />
        </mxCell>
        <mxCell id="R8H1wgWXsZs8RLJjWXsM-11" style="edgeStyle=orthogonalEdgeStyle;rounded=0;orthogonalLoop=1;jettySize=auto;html=1;entryX=0.5;entryY=0;entryDx=0;entryDy=0;entryPerimeter=0;" edge="1" parent="1" source="R8H1wgWXsZs8RLJjWXsM-12" target="R8H1wgWXsZs8RLJjWXsM-6">
          <mxGeometry relative="1" as="geometry" />
        </mxCell>
        <mxCell id="R8H1wgWXsZs8RLJjWXsM-12" value="docker runner" style="aspect=fixed;html=1;points=[];align=center;image;fontSize=12;image=img/lib/azure2/other/Worker_Container_App.svg;" vertex="1" parent="1">
          <mxGeometry x="188" y="-324" width="68" height="66" as="geometry" />
        </mxCell>
        <mxCell id="R8H1wgWXsZs8RLJjWXsM-13" style="rounded=0;orthogonalLoop=1;jettySize=auto;html=1;entryX=0.5;entryY=0;entryDx=0;entryDy=0;entryPerimeter=0;" edge="1" parent="1" source="R8H1wgWXsZs8RLJjWXsM-14" target="R8H1wgWXsZs8RLJjWXsM-5">
          <mxGeometry relative="1" as="geometry" />
        </mxCell>
        <mxCell id="R8H1wgWXsZs8RLJjWXsM-14" value="cloud runner" style="aspect=fixed;html=1;points=[];align=center;image;fontSize=12;image=img/lib/azure2/other/Worker_Container_App.svg;" vertex="1" parent="1">
          <mxGeometry x="169" y="-482" width="68" height="66" as="geometry" />
        </mxCell>
        <mxCell id="R8H1wgWXsZs8RLJjWXsM-15" style="rounded=0;orthogonalLoop=1;jettySize=auto;html=1;entryX=0.5;entryY=0;entryDx=0;entryDy=0;entryPerimeter=0;" edge="1" parent="1" source="R8H1wgWXsZs8RLJjWXsM-16" target="R8H1wgWXsZs8RLJjWXsM-5">
          <mxGeometry relative="1" as="geometry">
            <mxPoint x="64" y="-406" as="targetPoint" />
          </mxGeometry>
        </mxCell>
        <mxCell id="R8H1wgWXsZs8RLJjWXsM-16" value="cloud runner" style="aspect=fixed;html=1;points=[];align=center;image;fontSize=12;image=img/lib/azure2/other/Worker_Container_App.svg;" vertex="1" parent="1">
          <mxGeometry x="179" y="-472" width="68" height="66" as="geometry" />
        </mxCell>
        <mxCell id="R8H1wgWXsZs8RLJjWXsM-17" style="rounded=0;orthogonalLoop=1;jettySize=auto;html=1;entryX=0.5;entryY=0;entryDx=0;entryDy=0;entryPerimeter=0;" edge="1" parent="1" source="R8H1wgWXsZs8RLJjWXsM-18" target="R8H1wgWXsZs8RLJjWXsM-5">
          <mxGeometry relative="1" as="geometry">
            <mxPoint x="74" y="-396" as="targetPoint" />
          </mxGeometry>
        </mxCell>
        <mxCell id="R8H1wgWXsZs8RLJjWXsM-18" value="cloud runner" style="aspect=fixed;html=1;points=[];align=center;image;fontSize=12;image=img/lib/azure2/other/Worker_Container_App.svg;" vertex="1" parent="1">
          <mxGeometry x="189" y="-462" width="68" height="66" as="geometry" />
        </mxCell>
        <mxCell id="R8H1wgWXsZs8RLJjWXsM-19" style="rounded=0;orthogonalLoop=1;jettySize=auto;html=1;entryX=0.5;entryY=0;entryDx=0;entryDy=0;entryPerimeter=0;" edge="1" parent="1" source="R8H1wgWXsZs8RLJjWXsM-20" target="R8H1wgWXsZs8RLJjWXsM-5">
          <mxGeometry relative="1" as="geometry">
            <mxPoint x="84" y="-386" as="targetPoint" />
          </mxGeometry>
        </mxCell>
        <mxCell id="R8H1wgWXsZs8RLJjWXsM-20" value="cloud runner" style="aspect=fixed;html=1;points=[];align=center;image;fontSize=12;image=img/lib/azure2/other/Worker_Container_App.svg;" vertex="1" parent="1">
          <mxGeometry x="199" y="-452" width="68" height="66" as="geometry" />
        </mxCell>
      </root>
    </mxGraphModel>
  </diagram>
</mxfile>
